<?xml version="1.0" encoding="UTF-8"?>
<svg id="Layer_1" data-name="Layer 1" xmlns="http://www.w3.org/2000/svg" version="1.1" viewBox="0 0 1000 577">
  <defs>
    <style>
      .cls-1 {
        isolation: isolate;
      }

      .cls-1, .cls-2 {
        opacity: .1;
      }

      .cls-1, .cls-3, .cls-4, .cls-5 {
        stroke-miterlimit: 10;
      }

      .cls-1, .cls-4, .cls-5 {
        stroke: #606060;
        stroke-width: 3px;
      }

      .cls-1, .cls-5, .cls-6 {
        fill: #fff;
      }

      .cls-7 {
        fill: #014289;
      }

      .cls-7, .cls-8, .cls-6 {
        stroke-width: 0px;
      }

      .cls-9 {
        opacity: .1;
      }

      .cls-3 {
        fill-rule: evenodd;
        stroke: #5e5e5e;
        stroke-width: 2px;
      }

      .cls-3, .cls-4 {
        fill: none;
      }

      .cls-8 {
        fill: #5e5e5e;
      }

      .cls-10 {
        display: none;
      }
    </style>
  </defs>
  <g id="Ebene_2" data-name="Ebene 2" class="cls-10">
    <polyline class="cls-7" points="0 577 0 0 1000 0 1000 577"/>
  </g>
  <g id="Ebene_1" data-name="Ebene 1">
    <g class="cls-2">
      <g>
        <path class="cls-6" d="M859.6,388l-2.3-14.5-14.1-3-2.2-14.1-14.1-3-2.2-14.1-13.3-2.8-20.3-21.1-.9.2c-4,1.1-8.2,1.7-12.3,1.7-12.3,0-23.9-5-32.4-14.1-8.9-8.9-13.8-20.7-13.6-33.2,0-12.6,5.3-24.4,14.5-33.2,8.6-8.6,20.1-13.3,32.5-13.3s24.8,5,33.9,14.1c11.4,11.4,15.6,28.9,10.9,45.5l-.2.8,70.4,72.6-.8,32.2-33.5-.7ZM755.3,246.5c-3.6,3.1-5.6,7.6-5.6,12.4s2,9.3,5.6,12.4c3.4,3.4,7.9,5.3,12.5,5.3s9.1-1.9,12.6-5.5c3.5-3.5,5.4-8,5.4-12.6s-2-9.2-5.9-13h0c0-.1,0-.2,0-.2-3.6-2.5-8.1-4-12.4-4-4.9,0-9.2,1.9-12,5.2Z"/>
        <path class="cls-8" d="M778.5,225c12.4,0,24,4.9,32.8,13.7,10.9,10.9,15,28.2,10.5,44.1l-.5,1.7,1.2,1.2,69.4,71.6-.8,30-30.3-.8-1.9-12.2-.3-2-2-.4-12.1-2.5-1.9-12.1-.3-2-2-.4-12.1-2.5-1.9-12.1-.3-2-2-.4-11.8-2.5-19.6-20.4-1.2-1.3-1.7.5c-3.9,1.1-7.9,1.7-11.9,1.7-11.9,0-23.1-4.8-31.4-13.7h0c-8.6-8.6-13.3-20-13.2-32.1,0-12.2,5.1-23.6,14-32.1h0c8.3-8.4,19.4-13,31.3-13M754.2,245.4c-3.9,3.4-6.1,8.3-6.1,13.5s2.2,10.1,6.1,13.5c3.8,3.7,8.6,5.7,13.5,5.7s9.9-2.1,13.7-5.9,5.9-8.6,5.9-13.7-2.2-10-6.4-14.1l-.2-.2h-.2c-3.8-2.8-8.7-4.4-13.3-4.4-5.2,0-9.8,2-13,5.6M778.5,222c-12.2,0-24.3,4.6-33.5,13.8-9.5,9.1-14.8,21.2-14.9,34.2,0,12.9,4.9,25.1,14,34.3,9,9.5,21,14.6,33.5,14.6s8.5-.6,12.7-1.8l20,20.8,12.7,2.7,2.2,14.1,14.1,3,2.2,14.1,14.1,3,2.3,14.7,35.8.9,1.3-34.4-70.2-72.5c4.8-17,.5-35.2-11.3-47-9.7-9.6-22.4-14.5-35-14.5h0ZM767.7,275.1c-4.1,0-8.1-1.6-11.5-4.9-3.2-2.8-5.1-6.9-5.1-11.3s1.9-8.6,5.2-11.4c2.8-3.3,6.8-4.7,10.9-4.7s8.3,1.4,11.6,3.7c3.7,3.6,5.5,7.7,5.5,12s-1.8,8.3-5,11.6c-3.4,3.3-7.5,5-11.6,5h0Z"/>
      </g>
    </g>
    <path class="cls-1" d="M215.3,503.8h151.7v-106.2h-151.7v106.2ZM374.7,519h-166.9c-4.2,0-7.6-3.4-7.6-7.6v-144.1h53.1v15.2h121.4c4.2,0,7.6,3.4,7.6,7.6v121.4c0,4.1-3.4,7.5-7.6,7.5"/>
    <g class="cls-2">
      <path class="cls-5" d="M323.1,237.6V100.2h49.1v-49h88.3v186.4h-39.3v16.5h54c1.9-.1,1.9-1.4,1.9-1.9V36.4c-.1-1.9-1.4-1.9-1.9-1.9h-117.7c-.1,0-3.8,0-6.3,2.6l-42.1,42.1c0,0-2.6,2.8-2.6,6.3v166.7c.1,1.9,1.4,1.9,1.9,1.9h54v-16.5h-39.3Z"/>
      <line class="cls-4" x1="362.4" y1="254.1" x2="362.4" y2="255.7"/>
    </g>
    <g class="cls-2">
      <polygon class="cls-6" points="341 271.8 375 271.8 375 212.6 408.6 212.6 408.6 271.8 442.6 271.8 391.8 315.8 341 271.8"/>
      <path class="cls-8" d="M407.1,214.1v59.2h31.5l-46.8,40.5-46.8-40.5h31.5v-59.2h30.6M410.1,211.1h-36.6v59.2h-36.6l54.9,47.5,54.9-47.5h-36.6v-59.2h0Z"/>
    </g>
    <g class="cls-2">
      <path class="cls-5" d="M479.1,462.7c-11.8,0-22.3-3.9-30.2-9.2-17.1,7.9-28.9,22.3-28.9,38.1v63h118.2v-63c0-15.8-11.8-30.2-28.9-38.1-7.9,5.3-18.4,9.2-30.2,9.2"/>
      <path class="cls-5" d="M438.4,399.7c0,24.9,18.4,44.6,40.7,44.6s40.7-19.7,40.7-44.6-18.4-44.6-40.7-44.6-40.7,19.7-40.7,44.6"/>
      <path class="cls-5" d="M754.8,444.4c22.3,0,40.7-19.7,40.7-44.6s-18.4-44.6-40.7-44.6-40.7,19.7-40.7,44.6,18.4,44.6,40.7,44.6"/>
      <path class="cls-5" d="M616.9,385.3c22.3,0,40.7-19.7,40.7-44.6s-18.3-44.7-40.7-44.7-40.7,19.7-40.7,44.6,18.4,44.7,40.7,44.7"/>
      <path class="cls-5" d="M616.9,403.7c-11.8,0-22.3-3.9-30.2-9.2-17.1,7.9-28.9,22.3-28.9,38.1v63h118.2v-63c0-15.8-11.8-30.2-28.9-38.1-7.8,5.2-18.3,9.2-30.2,9.2"/>
      <path class="cls-5" d="M754.8,462.7c-11.8,0-22.3-3.9-30.2-9.2-17.1,7.9-28.9,22.3-28.9,38.1v63h118.2v-63c0-15.8-11.8-30.2-28.9-38.1-7.9,5.3-18.4,9.2-30.2,9.2"/>
    </g>
    <path class="cls-1" d="M632,61c-51.9,0-94,42.1-94,94s42.1,94,94,94,94-42.1,94-94-42.1-94-94-94ZM601.9,185.1c-9.8,17.3-10.5,14.3-13.5,3.8-3.8-13.5-18-32.3-11.3-40.6,7.5-8.3,32.3-9.8,30.8,6-.7,18,0,21-6,30.8ZM656.1,182.8c0-34.6-34.6-34.6-34.6-51.9s17.3,0,34.6-17.3c12-12,34.6,17.3,34.6,34.6s-34.6,51.9-34.6,34.6Z"/>
    <g class="cls-2">
      <path class="cls-6" d="M91.1,197.4c-.7,0-2.2-.3-2.2-2.2v-7.4c0-.7.3-2.2,2.2-2.2h171.1c.7,0,2.2.3,2.2,2.2v7.4c0,.7-.3,2.2-2.2,2.2H91.1Z"/>
      <path class="cls-8" d="M262.2,187.1c.8,0,.8.3.8.7v7.4c0,.7-.4.7-.7.7H91.1c-.7,0-.7-.4-.7-.7v-7.4c0-.8.3-.8.7-.8h171.1M262.2,184.1H91.1c-3.7,0-3.7,3.7-3.7,3.7v7.4c0,3.7,3.7,3.7,3.7,3.7h171.1c3.7,0,3.7-3.7,3.7-3.7v-7.4c0-3.7-3.7-3.7-3.7-3.7h0Z"/>
    </g>
    <g class="cls-2">
      <path class="cls-6" d="M102.3,175.1c-.7,0-2.2-.3-2.2-2.2v-7.4c0-.7.3-2.2,2.2-2.2h13l-.3-1.7v-70.4c0-2,1.6-2.2,2.2-2.2h22.3c2.1,0,2.2,1.8,2.2,2.2v69.8c-.1.1-.1.3-.1.5l-.3,1.7h22.3l-.3-1.7v-70.4c0-2,1.6-2.2,2.2-2.2h22.3c2,0,2.2,1.6,2.2,2.2v69.9c-.1.1-.1.3-.2.6l-.2,1.7h22.4l-.3-1.8c0-.2-.1-.4-.1-.4v-70c0-2.1,1.8-2.2,2.2-2.2h22.3c2,0,2.2,1.6,2.2,2.2v69.9c-.1.1-.1.3-.2.6l-.2,1.7h13c.7,0,2.2.3,2.2,2.2v7.4c0,.7-.3,2.2-2.2,2.2H102.3Z"/>
      <path class="cls-8" d="M236.2,90.4c.4,0,.7,0,.7.8v69.6c-.1.2-.1.4-.1.6l-.4,3.4h14.6c.8,0,.8.3.8.7v7.4c0,.8-.3.8-.7.8H102.3c-.8,0-.8-.3-.8-.7v-7.4c0-.8.3-.8.7-.8h14.7l-.6-3.5v-70.2c0-.4,0-.7.8-.7h22.3c.4,0,.7,0,.7.8v69.6c0,.1-.1.3-.1.5l-.6,3.5h25.8l-.6-3.5v-70.2c0-.4,0-.7.8-.7h22.3c.4,0,.7,0,.7.8v69.6c-.1.2-.1.4-.1.6l-.4,3.4h25.8l-.6-3.5v-70.2c0-.4,0-.7.8-.7h22.3M236.2,87.4h-22.3s-3.7,0-3.7,3.7v70s0,.2.1.6h-18.8c0-.2.2-.3.2-.6v-70s0-3.7-3.7-3.7h-22.3s-3.7,0-3.7,3.7v70s0,.2.1.6h-19.1c0-.2.2-.3.2-.6v-70s0-3.7-3.7-3.7h-22.3s-3.7,0-3.7,3.7v70s0,.2,0,.6h-11.2c-3.7,0-3.7,3.7-3.7,3.7v7.4c0,3.7,3.7,3.7,3.7,3.7h148.6c3.7,0,3.7-3.7,3.7-3.7v-7.4c0-3.7-3.7-3.7-3.7-3.7h-11.3c0-.2.2-.3.2-.6v-70s0-3.7-3.7-3.7h0Z"/>
    </g>
    <g class="cls-2">
      <path class="cls-6" d="M94.8,78.4c-.6,0-1.4,0-1.9-.2.3-.3.7-.6,1.5-1.2l76.9-51.2s2.4-1.5,5.4-1.6h.3c1.7,0,3.4.6,5,1.6l76.9,51.2c.5.4,1.1.9,1.4,1.2-.4,0-.9,0-1.9,0H94.8Z"/>
      <path class="cls-8" d="M177,25.7c1.5,0,2.9.5,4.2,1.3l74.8,49.9H97.3l74.8-49.9s2-1.3,4.6-1.3h.3M177.1,22.7h-.3c-3.6.1-6.2,1.8-6.2,1.8l-77,51.3c-6.2,4.1,1.2,4.1,1.2,4.1h163.6c7.4,0,1.2-4.1,1.2-4.1l-76.9-51.2c-1.8-1.4-3.8-1.9-5.6-1.9h0Z"/>
    </g>
    <g class="cls-2">
      <polygon class="cls-6" points="64.3 498.9 45.4 472.3 76.7 461.8 96.3 435.2 116 461.8 147.2 472.3 128.3 498.9 128 532 96.3 522.1 64.7 532 64.3 498.9"/>
      <path class="cls-8" d="M96.3,437.7l18.2,24.5.6.8.9.3,28.9,9.8-17.5,24.5-.5.8v.9l-.3,30.6-29.3-9.1-.9-.3-.9.3-29.3,9.1-.3-30.6v-.9l-.5-.8-17.5-24.5,28.9-9.8.9-.3.6-.8,18-24.5M96.3,432.7l-20.6,27.8-32.8,11,19.8,27.8.4,34.7,33.1-10.3,33.1,10.3.4-34.7,19.8-27.8-32.8-11-20.4-27.8h0Z"/>
    </g>
    <g class="cls-2">
      <g>
        <path class="cls-6" d="M904.4,549.4h0c-.9-1.2-9.1-14.2-17.3-29-12.1-21.8-18-37-18-46.4,0-22.6,18.4-41,41-41s21,4.3,28.7,12.1c7.7,7.8,11.8,18,11.6,28.9,0,9.1-5.9,24.3-18,46.4-8,15.3-16.4,27.9-17.3,29h0c0,0,0,.2,0,.2l-5.2,7.8-5.3-8ZM910,449.6c-13.2,0-23.6,10.4-23.6,23.6s10.4,23.6,23.6,23.6,23.3-10.6,23.3-23.6-10-23.6-23.3-23.6Z"/>
        <path class="cls-8" d="M910,434.5c10.4,0,20.2,4.1,27.6,11.6,7.4,7.5,11.3,17.3,11.2,27.8,0,8.9-5.8,23.8-17.8,45.7h0c-8,15.3-16,27.4-17,28.6h0c0,0-.2.3-.2.3l-3.9,5.9-3.9-5.9-.2-.2h0c-1.1-1.8-9.2-14.6-17.1-28.9-12-21.6-17.8-36.5-17.8-45.7s4.1-20.5,11.5-28,17.2-11.2,27.8-11.2M910,498.4c13.7,0,24.8-11.3,24.8-25.1s-10.7-25.1-24.8-25.1-25.1,11-25.1,25.1,11,25.1,25.1,25.1M910,431.5c-23.6,0-42.5,18.9-42.5,42.5s5.7,24.6,18.2,47.1c8.6,15.3,17.1,28.9,17.5,29.3l6.4,9.6,6.4-9.6c.7-.7,9.3-13.6,17.5-29.3,12.1-22.1,18.2-37.5,18.2-47.1.4-23.6-18.9-42.5-41.7-42.5h0ZM910,495.4c-12.5,0-22.1-9.6-22.1-22.1s9.6-22.1,22.1-22.1,21.8,9.6,21.8,22.1-10,22.1-21.8,22.1h0Z"/>
      </g>
    </g>
    <g class="cls-9">
      <path class="cls-3" d="M132.9,354.5c-.6-.6-1.1-1.2-1.7-1.9-2.1-2.3-4.1-4.7-6.2-7.1-1.9-2.1-3.7-4.1-5.5-6.2-1.8-2-3.2-4.3-4.6-6.5-1.4-2.2-2.1-4.5-2.6-7-.4-2.2-.9-4.4-1-6.7v-.8c.8,1.2,1.5,2.2,2.2,3.2,2.2,3.3,4.4,6.5,7,9.4.8.9,1.6,1.9,2.5,2.8.1.2.3.3.5.4,1.9,1,3.7,2.2,5.7,3.1,2.1,1.1,4.4,2,6.5,3.1.2,0,.3.1.7.3-.2-.3-.3-.5-.4-.6-1-1.1-2.2-2.2-3.2-3.4-2.2-2.5-4.4-4.9-6.7-7.4-.3-.4-.6-.9-.8-1.5-1.3-4.4-1.9-8.9-2-13.6-.1-3.5.4-7,1.2-10.5,0,0,.1-.1.2-.3.6,1.1,1.2,2.1,1.8,3.2,1.2,2.2,2.3,4.4,3.5,6.6,2.3,3.9,4.7,7.7,7.4,11.4,2.6,3.5,5.3,6.8,8.7,9.6,2.8,2.3,5.5,4.6,8.5,6.7,3,2.1,6.1,4.2,9.4,5.8.5.2,1,.4,1.6.7.2.1.5.1.9.3-.2-.3-2.8-2.7-3.8-3.8-3-3.3-6.1-6.6-8.6-10.3-1.7-2.5-3.3-5-4.8-7.6-2.6-4.5-5-9.1-7.5-13.7-1.3-2.3-2.6-4.5-3.8-6.9-1.5-2.7-2.8-5.5-4.3-8.2-.2-.4-.4-.8-.7-1.1.6,0,4.6,1.4,6.8,2.3s4.5,1.7,6.7,2.7c2.2,1,4.3,2.1,6.6,3.2-.1-.3-3.2-5-4.9-7.1-3.2-4-6.9-7.4-11.4-10-1.9-1.1-3.6-2.2-5.5-3.4.2-.1.4-.2.6-.3,2.6-.9,5.2-1.4,7.9-1.9,2.1-.3,6.4-1,6.7-1.1-2.6-1.4-5.1-2.3-7.6-3.4-2.5-1.1-5.1-1.9-7.9-2.5.3-.2,5.1-1.4,7.3-1.6,4-.4,8,.2,11.8,1.4,3.2.9,6.1,2.4,8.7,4.2,3,2,5.3,4.6,7.4,7.5,1.7,2.3,3.2,4.9,4.4,7.5.6,1.3,1,2.7,1.4,4.1-2-1.5-4-2.7-6.2-3.8-2.2-1-4.4-2-6.7-2.8-2.2-.9-4.5-1.7-7.1-2.3.8,1,1.4,1.9,2,2.7,1.1,1.5,2.3,3.1,3.4,4.6,2.8,3.6,5.6,7.1,8.3,10.7,2.5,3.3,4.4,6.9,5.9,10.7,1.6,4,2.6,8.1,3.4,12.2.9,5.1,1.9,10.1,3.4,15.1,1,3.2,2.2,6.2,3.7,9.2,1.1,2.1,2.3,4.2,3.5,6.3.1.2.2.3.3.6-.4,0-.7,0-.9,0-2.6.1-5.1.2-7.5.8-2.4.6-4.8,1.4-7.1,2.1-4.4,1.4-8.8,2.8-13.3,3.9-4.4,1-8.9,1.7-13.4,2.2-4,.4-8,.6-12.1-.1-3.9-.6-7.6-1.6-11.2-3.2-1.2-.5-2.5-1.1-3.6-1.7-2.6-1.3-4.6-3.2-6.5-5.5-.8-1-1.6-2-2.3-3-1.4-1.8-2.2-4-3.3-5.9-2-3.8-3.5-7.8-4.8-11.8-.9-3-1.6-6.1-1.6-9.2,0-.1,0-.3,0-.7-.4.4-.6.7-.8.9-.8,1.2-1.3,2.5-1.6,3.9-.9,3.5-1.2,7.1-.9,10.8.3,3.5,1.4,6.8,2.5,10.1,1.7,5.2,4.5,9.8,7.5,14.4,2,3.1,4.3,5.9,6.8,8.6.5.5,1.1,1,1.9,1.7-.7,0-5.3-.9-7.3-1.5-3.9-1.1-7.7-2.6-11.3-4.4-2.1-1-4-2.2-5.9-3.7-2.1-1.6-4.1-3.3-5.9-5.3-1-1.1-1.9-2.4-2.7-3.7-1.3-2-2.3-4.1-3.1-6.4-.9-2.5-1.4-5.1-1.5-7.8,0-1.9.2-3.7.8-5.5.7-2.3,2.7-7.5,3-7.7v2c0,1.7,0,3.4,0,5.1,0,1.4.5,2.7,1,4,1.1,2.8,2.5,5.3,4.1,7.9,1.5,2.2,3,4.4,4.6,6.7.5.7,1.2,1.4,1.7,2,0,0-1.1-5-1.6-7-.7-3.2-1.2-6.4-1.7-9.7-.2-1.4-.3-2.8-.4-4.3,0-.9.1-1.8.5-2.6,1.1-2.3,2.1-4.8,3.3-7.1,2.1-4.3,4.1-8.5,6.8-12.5.9-1.4,1.9-2.7,2.7-4.1.9-1.4,1.6-2.9,2.5-4.4.2-.3.2-.8.2-1.1-.2-2-1.9-9.1-1.7-9.1.3.4.6.8.9,1.1,1.1,1.7,2.2,3.4,3.2,5.1.4.8.5,1.6.7,2.5.3,2.5,0,4.9-.9,7.3-.6,1.5-1,3.2-1.6,4.7-.8,2-.9,4-.5,6.1.9,4.4,2.5,8.6,5.2,12.2,1.5,1.9,3.1,3.7,5,5.3.9.8,1.9,1.6,2.8,2.3,2.5,2,5,4,7.8,5.5,2.3,1.3,4.9,2.3,7.3,3.4.5.2,1,.3,1.5.5,0,0,.1-.2.1-.2"/>
      <path class="cls-3" d="M85.9,294.9c-6.2-.3-12.3-1.2-17.9-4-.6,1.1-.8,2.3-.5,3.4.1.4,0,.8-.3,1.1-3,2.7-5.5,5.9-8.2,8.8-.2.2-.3.4-.4.6.3,0,7.9-3.4,11.5-5,.4-.2.9-.4,1.4-.6.4-.1.9-.2,1.3-.3,1.4,0,2.9,0,4.3,0,1.3,0,2.6-.4,3.8-.9,1.1-.6,2.2-1.1,3.3-1.7.7-.4,1.9-1.3,1.9-1.4h0ZM82,320.9c-.2-2.7-.2-5.2,0-7.7.3-2.5,1.5-4.7,2.7-7-.2,0-8.2,4.1-11.1,7.5-1.2,1.5-2.1,3.2-2.9,4.9-.9,1.7-1.9,3.4-2.8,5.1-.1.2-.2.3-.4.6-.2-.5-.3-1-.4-1.4-.4-1.1-.8-2.2-1.4-3.3-.9-1.7-2.4-2.7-4.3-3.2-1.2-.3-2.5-.3-3.7-.1-.3,0-.5.1-.9.3,2.6,1,4.9,1.9,5.9,4.5-3.1-1.6-6.3-2.3-9.7-.9.3,0,.5.2.8.2,2.2.4,4.2,1.1,6.2,2.1.5.3.9.6,1.5.9,1,.7,1.6,1.6,1.7,2.9-1-.5-2-1.1-3.1-1.5s-2.2-.6-3.3-.8c-1.1-.2-2.3-.2-3.4-.2s-2.2.1-3.3.7c1.1.3,2.2.6,3.3.9,1.7.6,3.5,1,5.1,2,.5.3,1,.8,1.5,1.1.8.6,1,1.5,1.1,2.3,0,.4,0,.8-.3,1-.2.2-.4.4-.6.5-1.9.9-3.8,1.1-5.6,0-1-.6-2-1.1-3-1.7-1.7-.9-3.6-1.4-5.6-1.6-1.8-.1-2.8-1.1-3.7-2.5-.9-1.4-1.3-3.1-1.7-4.7-.2-.6-.3-1.3-.5-2,.3-.1.7-.2.9-.3,1.7-.6,3.5-1.2,5.2-1.8.5-.2.9-.4,1.3-.8,1.2-1.1,2.3-2.3,3.4-3.4.5-.6,1-1.3,1.6-1.9-.2,0-3.9,0-5.6,0-2.3.1-4.7-.2-6.9-.9-.2,0-.3-.1-.6-.2.2-.2.4-.4.5-.6,2.6-2,5.2-4,7.9-5.9,3.1-2.3,6.1-4.5,9.2-6.8,1.6-1.2,3.3-2.4,4.9-3.6.5-.3.7-.7.7-1.3,0-1,.3-2.1.4-3.2,0-.5.4-.9.8-1.2,3.1-2.5,6.2-4.8,9.9-6.4.9-.4,1.9-.8,2.9-1,2.3-.5,4.8-.9,7.2-1.4.5-.1.9,0,1.2.4,1.2,1.3,2.5,2.5,3.7,3.7.8.8,1.6,1.5,2.3,2.3-2.7.2-5.4.2-8.1.5,0,0,0,.2,0,.2.6.5,1.1,1.1,1.7,1.6,2.2,1.6,4.4,3.3,6.5,4.9q1.7,1.3,2.3,3.3c.6,2.3,1.1,4.8,1.7,7.2.3,1.3.6,2.6.9,3.8.1.4,0,.8-.3,1.1-1.5,1.4-3,2.9-4.5,4.3-2.1,1.9-4.2,3.7-6.3,5.6-.8.7-2.6,2.5-2.9,2.7"/>
      <path class="cls-3" d="M97.7,271.4c1-1.4,2.4-2.6,3.9-3.5,2.9-1.9,6.1-3.4,9.3-4.9.9-.4,1.9-.9,2.8-1.5-.6,0-1.2.1-1.9.2-3.3.3-6.6.8-9.7,2.1-2.5,1-4.7,2.3-7.1,3.6-3.1,1.7-9.5,5.2-9.8,5.2,1.1-1,2.1-2,3.2-2.9,3.2-2.7,6.6-5.1,10.1-7.1,3.4-1.9,7.1-3.2,10.9-4.4,3-.9,6.1-1.6,9.2-2,4.2-.5,8.2,0,12,1.9,2.5,1.2,7.7,3.5,7.9,3.8h-7.3c-3,0-5.9.5-8.9,1.1-6.8,1.4-13.4,3.4-19.8,5.9-1.6.7-3.2,1.5-4.9,2.2"/>
      <path class="cls-3" d="M100.8,290c.2-.5.3-.9.4-1.2,1-2.2,2-4.4,3-6.5.3-.7.8-1.1,1.4-1.5,1.7-.9,3.5-1.5,5.4-1.6,1.6-.1,3.4-.2,5.1-.2,1.5,0,2.6.5,3.4,1.7,1.2,1.8,2.3,3.6,3.5,5.4,1.1,1.7,1,3.4-.3,5.1-1.7,2.2-3.6,4.2-5.6,6.2,0,0-.1.1-.3.2,0-.3.1-4.4.2-6.3,0-.9-.2-1.7-.8-2.5-.6-.8-1.1-1.6-1.7-2.5-.7-.9-1.2-1-2.2-.6-.9.4-1.7.9-2.6,1.3-1.5.8-2.9,1.6-4.4,2.5-1.1.6-2.4.8-3.7.7-.3,0-.5-.1-.9-.2"/>
      <path class="cls-3" d="M65.9,349.6c-1.1,0-2.1-.2-3-.6-3.5-1.5-6.8-3.3-9.8-5.7-.4-.3-.8-.6-1.3-.8.2,2.5.8,4.8,1.6,7.2-.9-.4-1.5-.8-2.1-1.3-2.6-2.1-4.4-4.7-5.2-8-.5-1.9-.7-3.9-.7-5.8v-2.3c1-.2,1.9,0,2.6.5.7.4,1.4.9,2,1.4,2,1.6,4.2,3,6.6,4,.4.2.5.5.6.9.4,1.7,1.1,3.4,2.3,4.7,1.5,1.6,3,3.3,4.8,4.6.5.4,1,.8,1.5,1.2"/>
      <path class="cls-3" d="M75.6,275.6c.1-.5.2-1,.3-1.5.9-3.3,2.3-6.5,4.4-9.2,1.5-1.9,3.3-3.4,5.3-4.7,3.1-2.1,6.4-3.6,10-4.6.4-.1.9-.2,1.4-.3-7.6,6.3-21.3,20.3-21.4,20.2"/>
      <path class="cls-3" d="M80.3,377.2c-3.5-1.3-6.7-2.7-9.4-5.2-1.9-1.9-3-4.1-3.5-6.7-.4-2.1-.2-4.1.6-6.1,0-.2.2-.4.3-.6,0,0,11.9,18.3,12,18.5"/>
      <path class="cls-3" d="M71.4,277.6c0-2-.2-4.1,0-6.1.3-2.6,1.3-4.9,2.9-6.9,0-.1.2-.2.3-.3h.1c.2,1.4-2.2,11.2-3.4,13.3"/>
    </g>
    <g class="cls-9">
      <path class="cls-3" d="M884.6,159.5c-.7-.7-1.4-1.4-2-2.2-2.5-2.8-5-5.6-7.4-8.5-2.2-2.5-4.4-5-6.6-7.4-2.1-2.3-3.8-5.1-5.5-7.8-1.6-2.6-2.5-5.4-3.1-8.3-.5-2.6-1-5.3-1.2-7.9v-.9c1,1.4,1.8,2.6,2.7,3.8,2.7,3.9,5.3,7.8,8.4,11.3,1,1.1,2,2.2,3,3.3.1.2.4.4.6.5,2.2,1.2,4.4,2.6,6.8,3.7,2.5,1.3,5.2,2.4,7.8,3.6.2,0,.4.1.8.3-.2-.3-.3-.6-.5-.7-1.2-1.4-2.6-2.7-3.8-4-2.7-2.9-5.3-5.8-7.9-8.8-.4-.5-.7-1.1-.9-1.8-1.6-5.3-2.2-10.7-2.4-16.2-.1-4.2.5-8.4,1.4-12.5,0,0,.1-.1.3-.4.7,1.4,1.4,2.5,2.1,3.8,1.4,2.6,2.7,5.3,4.2,7.9,2.7,4.6,5.7,9.2,8.8,13.6,3.1,4.2,6.4,8.1,10.4,11.5,3.3,2.7,6.6,5.5,10.1,7.9,3.6,2.5,7.2,5,11.2,6.9.6.3,1.2.5,1.9.8.3.1.6.1,1.1.3-.3-.4-3.3-3.2-4.6-4.6-3.6-3.9-7.2-7.9-10.3-12.2-2.1-2.9-4-5.9-5.7-9.1-3.1-5.4-6-10.9-9-16.4-1.5-2.7-3.1-5.4-4.6-8.2-1.8-3.3-3.4-6.5-5.1-9.8-.3-.5-.5-.9-.8-1.4.7,0,5.5,1.6,8.1,2.7s5.3,2.1,7.9,3.3c2.6,1.2,5.1,2.5,7.9,3.8-.1-.4-3.8-5.9-5.8-8.5-3.8-4.8-8.3-8.9-13.6-12-2.2-1.3-4.3-2.6-6.6-4,.3-.1.5-.3.7-.4,3.1-1,6.2-1.6,9.4-2.2,2.5-.4,7.7-1.2,8-1.4-3.1-1.6-6.1-2.7-9.1-4.1-2.9-1.4-6.1-2.3-9.4-2.9.4-.2,6.1-1.6,8.7-2,4.8-.5,9.5.3,14.1,1.6,3.8,1.1,7.2,2.9,10.4,5,3.6,2.4,6.3,5.5,8.8,9,2,2.8,3.8,5.8,5.2,9,.7,1.6,1.2,3.3,1.6,5-2.3-1.8-4.8-3.3-7.4-4.6-2.6-1.2-5.3-2.3-8-3.4-2.7-1-5.4-2.1-8.5-2.8.9,1.2,1.6,2.3,2.3,3.3,1.4,1.8,2.7,3.6,4.1,5.5,3.3,4.3,6.7,8.5,10,12.8,3,3.9,5.3,8.2,7.1,12.8,1.9,4.8,3.1,9.6,4,14.6,1.1,6.1,2.2,12.1,4,18,1.2,3.8,2.6,7.4,4.4,11,1.3,2.5,2.8,5,4.2,7.6.1.2.2.4.4.7-.5,0-.8,0-1.1,0-3.1.1-6.1.2-9,.9-2.9.7-5.7,1.6-8.5,2.5-5.2,1.7-10.5,3.4-15.8,4.7-5.3,1.2-10.6,2.1-16,2.6-4.8.5-9.6.7-14.4-.1-4.6-.7-9.1-2-13.4-3.8-1.4-.7-2.9-1.3-4.3-2.1-3.1-1.6-5.5-3.8-7.8-6.5-1-1.2-1.9-2.4-2.8-3.6-1.7-2.1-2.7-4.8-3.9-7.1-2.3-4.6-4.2-9.3-5.7-14.1-1.1-3.6-1.9-7.2-2-10.9,0-.1,0-.4,0-.8-.5.5-.7.8-1,1.1-1,1.4-1.6,3-2,4.6-1,4.2-1.4,8.5-1.1,12.9.3,4.2,1.6,8.1,2.9,12.1,2,6.3,5.4,11.7,8.9,17.2,2.3,3.7,5.1,7.1,8.1,10.2.7.7,1.4,1.2,2.3,2.1-.8,0-6.4-1.1-8.7-1.8-4.6-1.4-9.2-3.1-13.5-5.2-2.5-1.2-4.8-2.7-7-4.4-2.5-2-5-4-7-6.4-1.2-1.4-2.2-2.9-3.2-4.4-1.5-2.4-2.7-5-3.7-7.6-1.1-3-1.6-6.1-1.8-9.3,0-2.3.3-4.4.9-6.6.8-2.8,3.3-8.9,3.6-9.2v2.4c0,2,0,4,0,6.1,0,1.6.6,3.2,1.2,4.8,1.3,3.3,3,6.4,5,9.4,1.8,2.7,3.6,5.3,5.5,7.9.6.8,1.4,1.6,2.1,2.4,0,0-1.4-6-1.9-8.3-.8-3.8-1.4-7.7-2-11.5-.3-1.7-.4-3.4-.5-5.1,0-1.1.1-2.1.6-3.1,1.3-2.8,2.5-5.7,3.9-8.5,2.5-5.1,5-10.2,8.1-14.9,1-1.6,2.3-3.3,3.3-5,1-1.7,2-3.5,2.9-5.3.2-.4.3-.9.2-1.4-.2-2.4-2.2-10.9-2.1-10.9.3.5.7.9,1,1.4,1.3,2,2.7,4,3.8,6.1.5.9.7,2,.8,3,.4,2.9,0,5.9-1,8.7-.7,1.8-1.2,3.8-1.9,5.6-.9,2.3-1.1,4.8-.6,7.2,1.1,5.3,3,10.2,6.3,14.5,1.8,2.3,3.7,4.4,5.9,6.4,1.1.9,2.2,1.9,3.3,2.8,2.9,2.4,5.9,4.8,9.3,6.5,2.8,1.5,5.8,2.7,8.7,4,.6.3,1.2.4,1.8.6,0,0,.1-.2.1-.3"/>
      <path class="cls-3" d="M828.4,88.3c-7.4-.4-14.7-1.4-21.4-4.8-.7,1.4-.9,2.7-.6,4.1.1.5,0,.9-.4,1.3-3.6,3.3-6.6,7-9.8,10.6-.2.3-.4.5-.5.7.4,0,9.4-4,13.7-6,.5-.3,1.1-.5,1.6-.7.5-.1,1-.3,1.5-.3,1.7,0,3.5,0,5.1,0,1.6,0,3.1-.5,4.5-1.1,1.4-.7,2.6-1.4,4-2.1.8-.5,2.2-1.6,2.2-1.6h0ZM823.7,119.3c-.3-3.2-.3-6.2,0-9.2.4-3,1.8-5.7,3.3-8.4-.3,0-9.8,4.9-13.2,8.9-1.4,1.8-2.5,3.8-3.5,5.8-1.1,2-2.2,4-3.4,6.1-.1.2-.3.4-.5.7-.2-.7-.3-1.2-.5-1.7-.5-1.4-1-2.7-1.6-3.9-1-2.1-2.9-3.3-5.1-3.8-1.4-.4-2.9-.4-4.4-.1-.3,0-.6.1-1.1.3,3.1,1.2,5.8,2.2,7.1,5.4-3.7-1.9-7.5-2.8-11.6-1.1.3,0,.7.3,1,.3,2.6.5,5,1.4,7.4,2.5.6.3,1.1.7,1.8,1,1.2.8,1.9,2,2.1,3.5-1.2-.6-2.4-1.3-3.7-1.8s-2.6-.7-3.9-.9c-1.4-.2-2.7-.3-4.1-.3s-2.6.1-3.9.8c1.3.4,2.6.7,3.9,1.1,2.1.7,4.2,1.2,6.1,2.4.6.4,1.2.9,1.8,1.4.9.7,1.2,1.8,1.4,2.8,0,.5,0,.9-.4,1.2-.3.2-.5.5-.7.6-2.3,1-4.5,1.3-6.7,0-1.2-.7-2.4-1.4-3.6-2-2.1-1-4.3-1.7-6.6-1.9-2.1-.1-3.4-1.4-4.4-3-1.1-1.7-1.6-3.7-2.1-5.6-.2-.7-.4-1.5-.6-2.3.4-.1.8-.3,1.1-.4,2.1-.7,4.2-1.4,6.3-2.1.6-.2,1.1-.5,1.6-.9,1.4-1.4,2.7-2.7,4.1-4.1.7-.7,1.2-1.5,2-2.3-.3,0-4.7,0-6.7,0-2.8.1-5.6-.3-8.3-1-.2,0-.4-.1-.7-.3.3-.3.5-.5.7-.7,3.1-2.3,6.3-4.8,9.4-7.1,3.6-2.7,7.3-5.4,11-8.1,2-1.4,3.9-2.9,5.9-4.3.6-.4.8-.8.8-1.6,0-1.2.3-2.5.5-3.8,0-.6.5-1,.9-1.4,3.7-2.9,7.4-5.7,11.8-7.7,1.1-.5,2.3-1,3.5-1.2,2.8-.6,5.7-1.1,8.6-1.6.6-.1,1,0,1.4.5,1.4,1.6,2.9,2.9,4.4,4.4.9.9,1.9,1.8,2.7,2.8-3.3.2-6.4.3-9.6.7,0,0,0,.2,0,.3.7.6,1.3,1.3,2,1.9,2.6,2,5.2,3.9,7.8,5.8q2.1,1.5,2.7,4c.7,2.8,1.4,5.7,2,8.6.4,1.6.7,3.1,1.1,4.6.1.5,0,.9-.3,1.3-1.8,1.7-3.6,3.5-5.4,5.1-2.5,2.3-5,4.4-7.5,6.7-.9.8-3.1,2.9-3.5,3.2"/>
      <path class="cls-3" d="M842.5,60.3c1.2-1.7,2.9-3.1,4.6-4.2,3.5-2.3,7.2-4.1,11.1-5.8,1.1-.5,2.3-1,3.4-1.8-.7,0-1.4.1-2.2.2-4,.3-7.9,1-11.6,2.5-2.9,1.2-5.7,2.8-8.5,4.3-3.7,2.1-11.3,6.3-11.7,6.3,1.4-1.2,2.5-2.4,3.8-3.5,3.8-3.2,7.9-6.1,12.1-8.5,4-2.3,8.5-3.8,13-5.2,3.6-1.1,7.2-2,11-2.3,5-.6,9.8,0,14.3,2.3,2.9,1.4,9.3,4.2,9.4,4.6h-8.7c-3.6,0-7.1.6-10.6,1.3-8.1,1.7-16,4-23.7,7.1-2,.8-3.8,1.8-5.8,2.6"/>
      <path class="cls-3" d="M846.2,82.4c.2-.6.3-1,.5-1.4,1.2-2.6,2.4-5.2,3.6-7.8.4-.8.9-1.4,1.6-1.8,2-1.1,4.2-1.8,6.4-2,2-.1,4-.2,6.1-.3,1.8,0,3.1.7,4,2.1,1.4,2.1,2.8,4.3,4.2,6.4,1.4,2.1,1.2,4-.3,6.1-2,2.6-4.3,5-6.6,7.4,0,0-.1.1-.4.3,0-.3.1-5.3.2-7.6,0-1.1-.3-2.1-.9-2.9-.7-1-1.4-2-2.1-2.9-.8-1-1.4-1.2-2.6-.7-1,.5-2.1,1-3.1,1.6-1.8,1-3.5,2-5.3,2.9-1.4.7-2.9,1-4.4.8-.3,0-.7-.1-1.1-.3"/>
      <path class="cls-3" d="M804.5,153.7c-1.4,0-2.5-.2-3.6-.7-4.2-1.8-8.1-4-11.7-6.8-.5-.4-.9-.7-1.5-1,.3,2.9,1,5.7,2,8.6-1-.5-1.8-1-2.5-1.6-3.1-2.5-5.3-5.7-6.3-9.6-.6-2.3-.8-4.6-.8-7v-2.8c1.2-.3,2.2,0,3.1.7.8.5,1.6,1.1,2.3,1.7,2.4,2,5,3.6,7.9,4.8.5.2.7.6.7,1,.5,2.1,1.4,4,2.7,5.7,1.8,2,3.6,3.9,5.7,5.5.6.5,1.2,1,1.8,1.4"/>
      <path class="cls-3" d="M816.1,65.3c.1-.6.2-1.2.4-1.8,1.1-4,2.7-7.8,5.3-10.9,1.8-2.2,4-4,6.3-5.6,3.6-2.5,7.6-4.3,11.9-5.5.5-.1,1.1-.3,1.6-.3-9.1,7.5-25.5,24.2-25.5,24.2"/>
      <path class="cls-3" d="M821.7,186.6c-4.2-1.6-8-3.3-11.2-6.2-2.3-2.2-3.6-4.9-4.2-7.9-.5-2.5-.3-4.9.7-7.2,0-.3.2-.5.3-.7,0,0,14.2,21.9,14.3,22.1"/>
      <path class="cls-3" d="M811.1,67.6c0-2.4-.2-4.9,0-7.3.3-3.1,1.5-5.8,3.5-8.2,0-.1.2-.2.3-.3h.1c.3,1.6-2.6,13.4-4,15.8"/>
    </g>
  </g>
</svg>