<?xml version="1.0" encoding="UTF-8"?>
<svg id="Layer_1" data-name="Layer 1" xmlns="http://www.w3.org/2000/svg" version="1.1" viewBox="0 0 650.1 674.6">
  <defs>
    <style>
      .cls-1 {
        fill: #fff;
        stroke-width: 0px;
      }
    </style>
  </defs>
  <g id="Ebene_2" data-name="Ebene 2">
    <g id="AXk2nR.tif">
      <g>
        <path class="cls-1" d="M587.3,495.5l-1.5-1.5c-.5-.5-1.2-1-1.6-1.6-4.3-8.1-10.7-14.8-15.2-23.1-.9.3-1.9.5-2.9.9-5.1,1.9-12.2,2-17.4.5-5.7-1.7-11.2-6.5-13.9-13.7-1.4-3.9-1.3-7.8-.9-11.8,0-.3.5-.5.8-.8-.7-1.5-2.2-1.3-3.5-1.9-7.6-3.4-15.6-5.7-23.4-8.3-14.9-5-29.7-10.3-44.7-15.2-9-3-17.9-6.3-26.9-9.3-14.9-5.1-29.7-10.3-44.7-15.3s-12-4.2-18-6.5-12.3-3.7-18.4-5.7c-1.9-.6-3.7-1.8-5.8-2.8-1.4,2.4-2.6,4.4-3.5,6.4-1.7,3.7-4.4,6.8-6.6,10.2-2.9,4.4-7.9,6.3-10.7,10.7,22.2,33.5,44.4,67.1,66.6,100.7,3.1-1.7,6.6-2.5,10.1-3,3.7-.6,7.3.4,10.5,1.7,3.4,1.3,6.2,4,9.3,6.1,3.7-2.5,7.5-5.1,11.2-7.8,3.7-2.7,7.4-5.6,11.2-8.5-.4-1.8-.5-3.9-1.4-5.5-2.6-4.8.4-8.4,2.3-12.2.5-.9,1.6-1.6,2.3-2.4,2.3-2.5,4.9-3.7,8.5-4,4.9-.4,10.4,1.5,13.4,4.7,4.5,4.8,4.8,13,1.4,18.8-1.7,2.9-4.2,4.1-6.6,5.7-2.5,1.7-7.8,1.6-11.5.3-.8-.3-1.7-.3-2.7-.4-1.4-1.4-2.8-2.9-4.1-4.2-7.8,5.7-15.5,11.5-23.5,17.4,1.6,3.2,3.1,6.4,3.7,9.8.6,3.6,0,7.3-1.2,10.7-1.2,3.2-3.5,6-5.6,9.5,11.3,13.4,22.7,27,34.3,40.8,1.8-.9,3.7-1.9,6-3.1,11.1-.7,16.5,4.4,19,12.9,1.4,4.9-1.7,13.1-8.4,16.5-8.2,4.2-15.9.7-19.9-4.8-2.2-3-3.2-6.6-3-10.5.2-3.8,2.3-6.6,4.8-9.8-1.4-1.8-2.9-3.9-4.5-5.7-3.4-3.8-6.7-7.6-9.5-11.7-1.6-2.4-3.9-4.2-5.7-6.6-4.6-6.1-10-11.5-15.2-17.5-4.6,4-10.4,5.4-16.3,4.5-3.4-.5-7.6-.6-10-4.4-3.9,3.6-7,7.8-9.9,12-1.6,2.4-3.7,4.5-5.5,6.7-4.7,5.7-9.5,11.3-13.9,17.2-1.1,1.5-2.7,2.6-3.9,3.7.4,3.3,3.1,5.2,3.8,8.3,1,4.4,1,8.3-1.5,12.2-2.4,3.8-5,7-9.9,7.1-5.3,3-9.4-.8-13.5-2.9-2.8-1.4-3.9-4.9-4.6-8.1-.3-1.2-.6-2.3-.9-3.7,1.5-5.2,2.5-11.2,8.8-13.9,5.8-2.4,11.3-2.7,16.1,1.3,10.9-13.5,21.9-27.1,32.9-40.7-10.7-10.7-10.2-24.4,1.5-36-22.3-33.6-44.7-67.3-67-100.9-15.1,9.3-29.4,10.7-45.5,6.4-.6.8-1.5,1.6-1.8,2.7-2.7,7.7-5.4,15.3-7.8,23.1-2.5,7.8-5,15.4-7.7,23.1-1.7,4.9-3.7,9.7-5,14.8-1.3,5.2-3.6,10.1-5.2,15.2-1.5,5-3,10-4.8,14.8-1.7,4.9-3.6,9.8-5.1,14.6-2.3,7.3-4.7,14.5-7.1,21.7-1.3,3.9-2,8.1-4.1,11.7-.5.8-.2,2.2-.2,3.4,10,5,14.6,13.3,13.4,24.4-.3,3-1.6,6-3.5,8.6s-4.1,4.7-6.7,6.7c-2.7,2-5.8,2.3-8.8,4,.7,3.4-1.1,7.1,1.2,10.5.2.3,0,.7,0,1.1.4,6.6.6,13.1,1.2,19.7.2,3,.9,6,1.5,9.3,1.7.5,3.9,1,6,1.7,6.6,2.1,9.1,7.5,10.1,13.5.5,2.8-.7,6.4-2.2,9-1.5,2.8-4.2,5-7.3,6.3-5.7,2.2-12,1.6-16.5-2.3-3-2.5-4.6-6.2-5.1-10.2-.2-1.8,0-3.7,0-5.6,1.6-2.7,2.9-5.5,5.1-8,2.3-2.6,6.1-2,8.5-4.9-.3-1-.6-2.1-1.3-4.5,0-1.3.1-3.9,0-6.5-.2-2.3-.8-4.5-1-6.8-.2-2.2.6-4.7-.2-6.7-1.4-3.8-.7-7.6-1-11.3-.1-1.5-.8-3-1.2-4.6-5.6-.8-11.4-1.2-15.3-6.3-9.8,8-17,18-25.7,26.5s-17.2,17.1-26.1,26c3.1,2.4,3.8,6,4.4,9.5.7,3.7-.9,7.1-2.8,10-2.1,3.2-5.5,5.1-9.5,6.8h-3.3c-6.9,0-12.2-4.5-14.8-11-1.6-4.1-.6-7.6.6-11.3,1.3-3.9,4.9-5.7,7.9-7.7,2.8-2,10.8-1,14.7.9.6.3,1.1.9,2,1.6,16.7-17.2,33.3-34.3,50.2-51.7-.3-.8-.5-2.1-1.2-3-2.8-4.2-4.8-8.6-4.7-13.8.1-4.4,2.2-8,4.1-11.8,1.8-3.4,5.3-5.1,7.5-7.3,5.9-1.8,11.2-4.6,17.1-1.1,16.4-48.6,32.7-97,49.1-145.5-6.3-3.8-12.9-6.3-18.2-11-5.4-4.7-8.7-10.9-12.9-16.7-6.6,3.2-13,6.3-19.3,9.4-9.3,4.5-18.7,9-28,13.5-8.1,3.9-16,8.4-24.3,11.7-9.3,3.8-18,8.8-27.2,12.9-8.2,3.7-16,8.2-24.3,11.7-7.8,3.3-15.3,7.3-23,10.9,2.6,5.8,2.8,11.7.2,17.7-2.6,5.8-7.2,9.5-12.6,12.3,6.7,20.2,13.4,40.2,20.1,60.2,3.4-1.7,6.7-1.1,9.6.3,2.9,1.4,6,2.8,7.5,6.3,1.2,3.1,3.7,6.1,2.8,9.4-1.1,4-2.2,8.4-5.9,10.9-7.6,5.1-14.9,5.7-23.8-4.5-1.9-5-2.3-10,.4-15.9,1.6-1.5,4-3.7,7.1-6.6.6-2.9-1.6-6.2-2.7-9.6-3.7-11.9-7.9-23.6-11.9-35.4-1.7-5.1-3.3-10.2-5-15.3-6.5,2.6-16.1,1.7-24.4-7.6-11.2,7.8-22.3,15.5-33.3,23.1.2.6.2.8.2.9,1.9,3,2.4,6.4,1.9,9.8-.2,1.6-1.6,3.1-2.1,4.7-1.1,3.2-4.5,4.3-5.6,6.6-5.4,2.2-10.3,2.1-15.4.2-2.9-3-6.6-5.8-8.5-12.8-.5-2.2,1.2-6.8,4-10.8,2.9-4,7.7-4.7,12.4-5.9,4.1,1.3,8.8,2.3,12.5,6.1,11.3-7.8,22.3-15.5,33.3-23.1-5.2-8.7-4.5-16.9.7-24.7,4.9-7.3,12.2-10.6,20.9-9.9,3.5.3,6.8,2.2,10.1,4,3.5,1.9,4.9,5.6,7.9,8,7.3-3.6,14.6-7.6,22.1-10.9,8.5-3.8,16.6-8.6,25.2-12.2,9.1-3.8,17.7-8.7,26.7-12.6,8.4-3.7,16.2-8.6,24.7-12,9.4-3.7,18-8.8,27.2-12.9,6.5-2.8,12.8-6,19.6-9.2-2.5-7-4.6-14-4.8-21.7h-53.4c-.6,6.3-3,12.2-8.4,16.2-5,3.8-10.9,6-17,4.7-10.7-2.2-19.5-9.1-19.8-25.2-17.6-3-35.2-6-53.3-9.1-1.9,5-4.7,10.1-14,12.3-3.4.5-9.4-.3-13.6-5.7-4.1-5.3-3.8-11.3-1.4-18.4.7-.6,2.2-1.9,3.7-3.4,1.7-1.7,3.7-2.5,6-3.2,2.4-.8,4.3-1.4,6.4.2,5.7-.5,7.9,4.5,11.5,7.3.5,3.1.9,6.1,1.4,9.3,8.8,1.5,17.9,3.2,26.9,4.7,9.1,1.5,18.1,2.9,27.2,4.4,1.5-6.4,5.3-11.3,10.9-15.1-2.7-7.3-7.2-13.3-10.4-20-3.2-6.5-6.3-13.1-9.6-19.9-.8.4-1.6.8-3.1,1.6-3-.3-6.7-.7-10.2-1.1-2.7-2.7-5-5-7.2-7.2-1.9-5.3-2-10.1.8-15,1.7-3,3.8-5.6,6.9-6.4,2.8-.8,5.5-2.8,8.7-1.4,3.7,1.6,8,2.3,10.3,6,4.5,7.4,5.7,14.6-4.7,23.5,6.6,12.7,13.2,25.4,20,38.4,1.5-.5,3.7.9,5.3-1,7-.7,13.4.5,19,5.3,5,4.3,7,10.4,7.5,15.6h53.5c.9-15.6,6.6-28.9,18-39.4-5.6-6-11.3-11.8-16.5-18-5.8-6.8-11.8-13.4-17.8-20.1-5.7-6.4-11.3-12.9-17-19.3-6-6.7-11.8-13.4-17.8-20.1-6-6.6-11.8-13.4-17.8-20.1-3-3.4-6.1-6.8-9.2-10.1-1.1-1.2-1.8-2.6-2.8-4-.9.1-2.1-.1-2.6.4-6.5,5.7-13.9,4.4-21.3,2.8-3.3-2.8-7.6-4.3-9.9-8.6-2.3-4.3-4.2-8.6-3.8-13.5,0-1.7.7-3.4,1.1-5.4-20.4-7.2-41-14.5-61.8-21.8-3.2,2.7-4.8,6.9-9.3,8.3-3.4,1-6.8,1-9.8,1-4.3-2.1-8.4-4.1-10.2-8.7-1-2.6-2.5-5.3-1.9-8.1.8-3.6,2.3-7.2,4.8-9.7s6.2-3.8,9.7-4.8c1.7-.5,8.9,1.9,10.4,3.1,2.9,2.3,4.6,5.4,6.3,9v7.8c2.5,1.1,5.1,2.7,7.9,3.5,9.5,2.7,18.6,6.4,28,9.6,7.4,2.5,14.7,5,22.1,7.5,1.3.4,2.7.8,3.6,1,2.5-3.1,4.2-6.6,7.1-8.5,2.8-1.8,5.4-4.8,9.9-4-.2-2.7.4-5.6-.7-7.6-1.3-2.5.8-5.2-1.4-7.3-.2-.2-.3-.6-.3-1-.4-4-.6-7.9-1.2-11.9-.4-3-1.5-6-1.1-9.1-2.5-2.4.3-6.2-2.2-8.6-.2-.2,0-.7,0-1.1,0-2.7-.3-5.3-.9-8-.6-2.5-.3-5.3-1.2-7.9-.3-1-.1-2.2-.1-3.7-7.9.9-13-3.1-16.7-9.3,0-1.7.3-3.7-.5-4.8-1.3-1.9,1.2-2.6.5-4.4-.8-2.1.8-4.1,2.3-5.6,2.1-2.2,4.5-4.2,6.3-5.9,11.9-.8,16.3.3,21.4,10.4,1.1,10.4-1,15.6-12.3,20.4.9,5.2,1.9,10.5,2.5,15.8.6,4.9,1.2,9.9,2.3,14.7.6,2.7.3,5.5,1.1,7.9.9,2.5.3,5.1,1.1,7.4.9,2.7.4,5.5,1.1,7.9.8,2.5.8,4.9,1,7.4.1,1,.9,1.8,1.5,3.1,10.3-.3,18.6,4.2,22.6,13.9,3.3,8,2.8,15.8-5.3,25,6.7,7.4,13.6,14.6,20.1,22.2,5.5,6.4,11,12.7,16.6,18.9,6.1,6.8,12.1,13.7,18.2,20.5,5.9,6.5,11.6,13.2,17.4,19.7,6.3,6.9,12.4,14,18.6,20.9,2.8,3.1,5.6,6.2,8.3,9.3.9-.1,2,.2,2.3-.2,2-3,5.5-3.9,8.3-5.8,3.1-2.1,6.8-3.2,10.6-4.2,2.3-.6,4.5-1.3,7.2-.9,0-2.2,1-4.3-.8-6.2-.2-.2-.1-.7-.1-1.1-.4-4.5-.7-9-1.1-13.5-.2-2.1-.7-4.2-1.1-6.3-.4-2.1.9-4.4-1.1-6.3-.2-.2,0-.7,0-1.1-.4-4.5-.6-9.1-1.2-13.5-.4-3.2-.7-6.5-1.3-9.6-.6-3.2-.2-6.6-1.1-9.6-.9-2.9-.2-5.9-1.1-8.5-.9-2.9-.9-5.7-1-8.5,0-2.2-1.6-3.9-1.2-6.3.3-1.9.7-4-1-5.7-.2-.2,0-.7,0-1.1-.4-4.7-.3-9.5-1.3-14.1-.6-3.1-.4-6.2-1.1-9.1-.8-3.1-.4-6.2-1.1-9.1-.8-3.1-.3-6.2-1.1-9.1-.9-3.1-.2-6.3-1.1-9-1.1-3.4-.6-6.8-1.1-10.6-4.3.5-8.4-.3-12.4-2.1-3.9-1.8-6.4-5.3-9.5-8-5.4,3.2-10.7,6.2-16,9.3,3.1,8.2,3,12.7-5.7,20.6-12.8,4.5-18.7,0-22.2-7.1-4-8.1.7-16.7,5.4-19.3,8.2-4.6,16.5-3,21.7,4.5,5.4-3.1,10.8-6.2,16.5-9.5-.7-1.5-1.4-3-2.3-4.8-.6-8.1-.1-16.2,6.9-22.4-13-15.5-25.8-30.8-38.4-45.8-3.3,1-6.3,2.4-9.5,2.9-3.2.4-6-1.4-8.8-2.9-2-1-3.5-2.1-4.3-4.3-.8-2.3-2.2-4.3-3-6.6-.4-1-.6-2.5,0-3.2,1.8-2.5.7-6.1,3.4-8.2,1.5-1.1,2.6-2.7,4.1-3.7,1.2-.9,2.8-1.4,4.7-2.3,9.9-1,14.7,2.5,17.6,8.2,3.2,6.5,2.3,13.2-3.3,18.6,3.2,3.7,6.5,6.9,9.1,10.6,4.1,5.7,9.3,10.5,13.2,16.4,1.8,2.7,4.6,4.5,6.5,7.4,2.9,4.3,6.9,8,10.4,11.8,7.9-5.3,14.6-5.9,22.6-2.3,7.2-13.7,14-27.6,20.7-41.3-1.2-1.8-3.5-1.5-3.9-3.9-.2-1.6-2.1-2.8-2.8-4.4-.7-1.6-.7-3.4-1.2-5.8,1.5-4.4,2-10.2,8.1-13.1,3.8-1.8,7.6-3,11.4-1.9,8,2.5,14.5,8.9,10.4,22.8-6.6,6.3-5.3,8.3-20.7,7.3-6.8,13.6-13.6,27.3-20.4,40.9,3.6,1.7,6.3,4.8,8.6,8,2,2.9,2.6,6.7,3.9,10.3h63.5c-.3-3.1.9-5.6,3.1-8,2.9-3.2,6.3-5.6,10.3-6.2,5.5-.9,11.8,2,16.9,10.6v6.5c.1,7.7-5.6,12.6-12.6,14.1-7.3,1.5-15.5-3.8-17.6-10.7-.3-1,0-2.2,0-3.5h-63.4c-2.2,2.5-1.8,6.3-3.6,9.4-2.3,4-5.1,7.1-9,9.4-1.2.7-2.7.7-4,1.2-1,.3-1.9.8-3.1,1.3.7,2.1-.7,4.2,1.1,5.9.3.3.1,1,.2,1.6.4,4.7.3,9.5,1.3,14.1.7,3.1.3,6.2,1.1,9.1.8,3.1.3,6.2,1.1,9.1.9,3.1.3,6.2,1.1,9.1.8,2.9.4,5.8,1.1,8.5.9,3.2.2,6.6,1.2,9.6,1,3.1.1,6.3,1.1,9.1,1.1,2.9.2,5.9,1.1,8.5,1,2.9.9,5.7,1,8.5.1,2.1,1.5,4,1.2,6.3-.3,1.9-.6,4,1,5.7.2.2,0,.7,0,1.1.4,4.5.4,9.1,1.2,13.5.6,3.2.5,6.5,1.2,9.6.8,3.3,0,6.8,1.2,9.6,1.3,3.1.3,6,1.3,9,.8,2.7.7,5.7,1.1,9h7.5c5.4-.1,10.6,1.4,15.8,2.4,3.1.6,5.9,2.9,9.2,4.6,1.3-1.7,2.7-3.2,3.7-5,3.2-5.6,6.2-11.3,9.4-16.8,3.4-5.9,7-11.7,10.5-17.5,1.7-2.8,3.6-5.6,5.1-8.5,3.2-6.4,7.3-12.3,10.7-18.6,3-5.7,6.5-11.1,9.6-16.7,3.3-5.9,6.9-11.7,10.2-17.6,1.9-3.3,3.6-6.7,5.6-10,3.5-5.8,7.2-11.6,10.6-17.4,3.2-5.5,6.2-11.3,9.4-16.8,3.4-5.9,7-11.7,10.4-17.5,1.8-3.1,3.3-6.5,5.3-9.6,5.5-8.3,9.5-17.5,15.3-25.6,1-1.4,1.5-3.1,2.4-5-3.3-3.5-7.6-6.7-8.8-12.1-.1-.5-1-.8-1-1.2-.7-7.9-.1-15.7,6.1-21.5s6.7-5.7,11.5-5.9c1,0,1.9-1,2.9-1,2.3,0,4.6.4,7.1.7,3.7-12.6,7.5-25.5,11.4-38.5-4.1-1.5-7.4-4-8.9-8.7-.4-1.2-.9-2.3-.9-3.5v-6.7c1.5-4.6,4.2-7.2,7.2-9.2,2.1-1.3,4.9-1.8,7.4-2.4,1.1-.3,2.3.1,3.6.6,5,2.1,5.1,1.9,11.2,8.1.3,3.7.7,7.8,1,11.1-4,8.6-9.9,12.5-19,11.4-3.7,12.6-7.5,25.2-11.3,38.1,1.4.8,3.1,1.7,5.8,3.2,1.6,1.7,4.2,4.1,6.3,6.9,1.9,2.5,2.4,5.8,3.2,8.7.8,3.1-.4,6.7-.8,10.6,14,5.5,28.1,11.1,42.1,16.6,1.9-4.5,5.8-6.6,10.5-8.8,11.8-1.7,20.5,6,19.2,18.1-1.5,5.3-4.2,8.5-7.5,10.9-1.7,1.3-4.5,2.4-6.3,1.9-2.5-.7-5.1.2-7.2-1-3.5-1.9-6.6-4-8.3-8.1-2.1-5-2.3-4.9-.9-11.4-14-5.6-28.1-11.2-42.5-16.9-5,11-14.4,14.4-26.5,12.9-1-.5-2.4-1.3-3.9-2.1-.4.2-1,.4-1.2.8-1.5,2.4-3,4.7-4.4,7.2-3.9,7-8.1,13.9-12.1,20.8-3.4,5.9-6.9,11.6-10.2,17.6-3.1,5.7-6.8,11-9.8,16.7-2.8,5.4-6.2,10.5-9.1,15.8-3.5,6.4-7.3,12.7-11.1,18.9-3.3,5.5-6.2,11.3-9.4,16.8-3.4,5.9-7,11.7-10.4,17.5-1.4,2.4-2.8,4.8-4.1,7.3-4.6,8.8-9.9,17.1-14.8,25.8-3.9,7-8.1,13.8-12.1,20.8-2.8,4.8-6.1,9.3-8.3,14.5-.3.6-1,1.1-1.8,1.8,4.1,3.4,8.7,6.3,12.1,10.2,3.3,3.8,6.8,7.7,8.5,13,1.1-.3,2.1-.4,3-.8,9.7-4.6,19.2-9.5,29-13.8,6.5-2.8,12.8-6.1,19.2-9.1,7-3.3,13.9-7.1,21.1-10,6.8-2.7,13.1-6.3,19.7-9.2,6.2-2.7,12-6.3,18.2-8.7,7-2.7,13.3-6.6,20.2-9.4,6.1-2.5,11.7-6,17.8-8.5,6.7-2.8,13.1-6.2,19.7-9.1,6.5-2.9,12.8-6,19.3-8.9,2.4-1.1,4.7-2.2,7-3.3-.6-3.5-2.4-6.6-1.9-9.9.5-3.3,1.5-6.5,2.4-9.9-.9-.6-1.8-1.1-2.7-1.6-8.5-5.2-17.2-9.9-25.7-15.2-6.9-4.3-14.2-8-20.9-11.7-3.4,2.5-6.4,4.6-8.9,6.4-6.4,1.2-11.4-.6-15.5-4.4-4.7-4.3-3.9-10.2-3.8-15.9,6.2-14,20.5-14,28.7-2.9,1.9,5.3,2.2,10,.1,15,16.7,9.7,33.1,19.3,50,29.1,2.1-3.8,5.3-6.3,8.9-8,3.7-1.7,7.7-3.2,11.8-2.5,3.9.7,8.1.8,11.1,4.6,8.9-11.3,17.7-22.4,26.5-33.6-1.4-2.2-2.9-4-3.7-6.1-3.1-8.8-.2-17.3,9.6-21,7.4-2.8,16,1.8,19,9.2.8,2,2.4,4.4,1.4,6.6-1.4,2.8-1,6.2-3.5,8.7-2.5,2.4-5.2,4.5-8.4,5.6-2.2.7-4.9.4-7.2.1-2-.3-3.9-1.5-5.8-2.3-8.8,11.2-17.5,22.2-26.3,33.3,8,8,10,17.2,5.4,27.7,8,4.6,16,9.2,24,13.8,4.6,2.7,9.3,5.4,14.2,7.7.8.4,1.7.5,2.4.7,6.6-6.7,11.4-7.8,17.6-5.8,7,2.3,9.8,7.8,11.1,14.9-1.4,5.5-3,11.6-9.6,14.3-4.3,1.7-9,2-13-.1-7.5-3.9-10.7-12.2-7.4-20.6-1-.9-1.9-2.2-3.2-2.8-6.9-3.3-13.3-7.5-20-11.3-5.5-3-10.9-6-16.6-9.2-5.3,6.3-11.5,10.6-20.3,10.4-8.7-.2-14.5-4.9-18.9-11.3-1,0-1.7-.2-2.1,0-7.3,3.5-14.7,7-22,10.5-7.2,3.4-14.2,7.2-21.5,10.2-5.8,2.3-11.1,5.6-16.9,8-7.2,2.9-14,6.9-21.1,9.8-5.5,2.2-10.5,5.2-16,7.4-4.1,1.7-8.2,3.7-12.3,5.6-3.9,1.9-7.7,3.8-11.6,5.7-6.1,3-12,6.3-18.2,8.7-6.8,2.6-13.1,6.3-19.7,9.2-6.2,2.7-12.1,6-18.2,8.8-4.5,2.1-9.2,4-14.2,6.1,2.7,6.6,3.9,13.3,4.8,20.1,1,6.9-1.9,13.5-2.3,20.5,11.2,3.2,22.3,6.8,33.1,10.8,10.4,3.8,21,6.9,31.3,10.9,6.8,2.6,13.7,4.9,20.6,7.1,4.9,1.6,9.7,3.6,14.6,5.2,8.2,2.8,16.4,5.4,24.6,8.2,14.9,5.2,29.6,10.6,44.6,15.4,4.8,1.5,9.4,3.5,14.1,5.2.8.3,1.7.3,2.6.5,5.9-15.7,28.4-18.2,37-6.8,15.1-13,30.2-26,45.6-39.3-2.3-5.4-3.9-11.2-1.5-17.4,1.4-1.3,2.7-2.5,4.1-3.8,5.3-5,12.8-5.8,18.8-1.7,4.4,3,6,6.6,6.4,11.4,0,.8.7,1.6.9,2.2-2.3,10.3-8.2,15.9-19.5,14.8-2.2-1.3-4.8-2.8-7.7-4.6-15.1,13-30.3,26-45.5,39.1,8.5,14.9,4.3,24.7-4.4,32.2,5.5,8.4,12.6,16.9,17.4,26.9Z"/>
        <path class="cls-1" d="M588,494.9c3.3,4.5,6.8,9,10,13.6,3.1,4.5,6,9.1,9,13.7,2.8-.8,5.5-2.2,8.1-2.1,3,0,6.4.8,9,2.4,2.8,1.7,4.9,4.5,6.2,7.9,3.2,8.9-2.3,16.5-8.3,19.6-.8.4-1.6.7-3,1.2-7.3,1-13.5-1.6-17.2-8.9-3.2-6.1-2.2-12.5,4.2-19.1-3.1-4.6-6.1-9.3-9.3-13.8-3.5-4.5-6.7-9.1-8.7-14.5Z"/>
      </g>
    </g>
  </g>
</svg>